# xmcd CD database file
#
# Track frame offsets:
#	150
#	14085
#	30029
#	47494
#	63578
#	81005
#	98289
#	113989
#	133275
#	145009
#	157368
#	167726
#
# Disc length: 2489 seconds
#
# Revision: 0
# Processed by: cddbd v1.5.1PL0 Copyright (c) Steve Scherf et al.
# Submitted via: CDex 1.51
#
DISCID=9909b70c
DTITLE=Bob Delevante - Porchlight
DYEAR=1900
DGENRE=Country
TTITLE0=1000 Miles To Go
TTITLE1=Penny Black
TTITLE2=Why Don't You Love Me
TTITLE3=Gravity Takes Hold
TTITLE4=Broken Kite
TTITLE5=Porchlight
TTITLE6=Knockerboy
TTITLE7=One Moment With You
TTITLE8=Simple As That
TTITLE9=You Worry Too Much
TTITLE10=End Of The Day
TTITLE11=Count Your Blessings
EXTD=
EXTT0=
EXTT1=
EXTT2=
EXTT3=
EXTT4=
EXTT5=
EXTT6=
EXTT7=
EXTT8=
EXTT9=
EXTT10=
EXTT11=
PLAYORDER=
